<svg width="26" height="27" viewBox="0 0 26 27" fill="none" xmlns="http://www.w3.org/2000/svg">
<path d="M19.0443 18.219L14.528 22.7353C14.3305 22.933 14.096 23.0898 13.8378 23.1968C13.5797 23.3038 13.303 23.3589 13.0235 23.3589C12.744 23.3589 12.4673 23.3038 12.2092 23.1968C11.951 23.0898 11.7165 22.933 11.519 22.7353L7.00167 18.219C5.81084 17.0281 4.99989 15.5109 4.67137 13.8591C4.34285 12.2073 4.5115 10.4952 5.15601 8.93933C5.80051 7.38341 6.89193 6.05354 8.29223 5.1179C9.69253 4.18226 11.3388 3.68287 13.023 3.68287C14.7071 3.68287 16.3534 4.18226 17.7537 5.1179C19.154 6.05354 20.2454 7.38341 20.8899 8.93933C21.5344 10.4952 21.7031 12.2073 21.3746 13.8591C21.046 15.5109 20.2351 17.0281 19.0443 18.219V18.219Z" stroke="black" stroke-width="3.19319" stroke-linecap="round" stroke-linejoin="round"/>
<path d="M15.2809 14.4557C15.8798 13.8568 16.2162 13.0446 16.2162 12.1977C16.2162 11.3508 15.8798 10.5386 15.2809 9.93981C14.6821 9.34097 13.8699 9.00454 13.023 9.00454C12.1761 9.00454 11.3639 9.34097 10.7651 9.93981C10.1662 10.5386 9.8298 11.3508 9.8298 12.1977C9.8298 13.0446 10.1662 13.8568 10.7651 14.4557C11.3639 15.0545 12.1761 15.3909 13.023 15.3909C13.8699 15.3909 14.6821 15.0545 15.2809 14.4557Z" stroke="black" stroke-width="3.19319" stroke-linecap="round" stroke-linejoin="round"/>
</svg>
